<svg id="Capa_1" enable-background="new 0 0 512 512" height="512" viewBox="0 0 512 512" width="512" xmlns="http://www.w3.org/2000/svg"><g><path d="m505.848 508.796-23.2-71.932-78.246-64.328c-31.205-4.686-62.556-8.115-94.036-9.807l6.71 73.421 67.424 75.85h112.5c3.38 0 6.341-1.322 8.848-3.204z" fill="#288c64"/><g><path d="m45 180h-30c-8.291 0-15-6.709-15-15s6.709-15 15-15h30c8.291 0 15 6.709 15 15s-6.709 15-15 15z" fill="#fed843"/></g><g><g><path d="m315 180h-30c-8.291 0-15-6.709-15-15s6.709-15 15-15h30c8.291 0 15 6.709 15 15s-6.709 15-15 15z" fill="#ffb64c"/></g></g><g><path d="m180 285v30c0 8.399-6.599 15-15 15s-15-6.601-15-15v-30c0-8.401 6.599-15 15-15s15 6.599 15 15z" fill="#fed843"/></g><g><path d="m180 15v30c0 8.399-6.599 15-15 15s-15-6.601-15-15v-30c0-8.401 6.599-15 15-15s15 6.599 15 15z" fill="#fed843"/></g><g><g><path d="m271.069 286.069c-3.838 0-7.676-1.465-10.605-4.395l-21.211-21.211c-5.859-5.859-5.859-15.352 0-21.211s15.352-5.859 21.211 0l21.211 21.211c5.859 5.859 5.859 15.352 0 21.211-2.93 2.93-6.768 4.395-10.606 4.395z" fill="#ffb64c"/></g></g><g><path d="m80.142 95.142c-3.838 0-7.676-1.465-10.605-4.395l-21.212-21.211c-5.859-5.859-5.859-15.352 0-21.211s15.352-5.859 21.211 0l21.211 21.211c5.859 5.859 5.859 15.352 0 21.211-2.93 2.93-6.768 4.395-10.605 4.395z" fill="#fed843"/></g><g><g><path d="m249.858 95.142c-3.838 0-7.676-1.465-10.605-4.395-5.859-5.859-5.859-15.352 0-21.211l21.211-21.211c5.859-5.859 15.352-5.859 21.211 0s5.859 15.352 0 21.211l-21.211 21.211c-2.93 2.93-6.768 4.395-10.606 4.395z" fill="#ffb64c"/></g></g><g><path d="m58.931 286.069c-3.838 0-7.676-1.465-10.605-4.395-5.859-5.859-5.859-15.352 0-21.211l21.211-21.211c5.859-5.859 15.352-5.859 21.211 0s5.859 15.352 0 21.211l-21.211 21.211c-2.931 2.93-6.768 4.395-10.606 4.395z" fill="#fed843"/></g><g><path d="m165 90c-41.4 0-75 33.6-75 75s33.6 75 75 75 75-33.6 75-75-33.6-75-75-75z" fill="#fed843"/></g><path d="m11.309 391.469c-.37.093-.634.355-.989.474-5.255 1.749-9.642 6.866-10.095 12.936-.031.39-.225.724-.225 1.121v91c0 4.911 2.509 9.06 6.152 11.796l88.36-78.813 13.086-57.447c-32.34 4.856-64.526 10.861-96.289 18.933z" fill="#9cdd05"/><path d="m384.5 512h-257l5.4-71.8 68.699-77.401c18.001-1.201 36.7-1.5 54.401-1.5s36.4.298 54.401 1.5z" fill="#9cdd05"/><path d="m512 497v-91c0-6.348-5.444-13.05-11.309-14.531-31.763-8.071-63.95-14.077-96.29-18.933l101.446 136.26c3.644-2.736 6.153-6.885 6.153-11.796z" fill="#6b0"/><path d="m384.5 512h-128.5v-150.7c17.701 0 36.4.298 54.401 1.5z" fill="#6b0"/><g fill="#ffb64c"><path d="m165 60v-60c8.401 0 15 6.599 15 15v30c0 8.399-6.599 15-15 15z"/><path d="m180 285v30c0 8.399-6.599 15-15 15v-60c8.401 0 15 6.599 15 15z"/><path d="m240 165c0 41.4-33.6 75-75 75v-150c41.4 0 75 33.6 75 75z"/></g><path d="m107.598 372.536-101.446 136.26c2.507 1.882 5.468 3.204 8.848 3.204h112.5l74.136-149.271c-31.48 1.691-62.833 5.121-94.038 9.807z" fill="#6b0"/></g></svg>