<svg id="Layer_1" enable-background="new 0 0 512.008 512.008" height="512" viewBox="0 0 512.008 512.008" width="512" xmlns="http://www.w3.org/2000/svg"><g><g><g><path d="m185.77 512.001h-170.762c-8.284 0-15-6.716-15-15v-159.998c0-3.842 324.626-78.532 328.741-78.532h168.255c8.284 0 15 6.716 15 15v165.362c0 3.621-321.895 73.168-326.234 73.168z" fill="#bee75e"/></g></g><path d="m497.004 258.472h-168.255c-1.724 0-59.735 13.117-126.553 28.639v221.654c66.245-13.749 309.809-66.782 309.809-69.931v-165.362c-.001-8.284-6.717-15-15.001-15z" fill="#00cb75"/><g><g><path d="m437.008 512.004h-251.009c-41.354 0-74.999-33.645-74.999-75 0-10.025 2.051-19.886 5.898-29h-41.898c-41.355 0-75-33.645-75-75s33.645-75 75-75h251.009c41.354 0 74.999 33.645 74.999 75 0 10.026-2.051 19.886-5.897 29h41.897c41.355 0 75 33.645 75 75s-33.645 75-75 75z" fill="#bcfbff"/></g></g><g><path d="m126.911 319.461c-7.974.001-14.61-6.278-14.973-14.325-1.443-32.036-24.317-57.132-52.077-57.132-.462 0-.924.008-1.387.021-8.239.267-15.195-6.258-15.446-14.54-.25-8.28 6.259-15.195 14.539-15.446.765-.023 1.529-.035 2.294-.035 43.841 0 79.88 37.68 82.046 85.782.373 8.276-6.034 15.287-14.31 15.659-.229.011-.458.016-.686.016z" fill="#00cb75"/></g><path d="m437.008 362.004h-41.898c3.847-9.114 5.897-18.974 5.897-29 0-41.355-33.645-75-74.999-75h-123.813v254h234.813c41.355 0 75-33.645 75-75s-33.645-75-75-75z" fill="#7dd5f4"/><g><path d="m127.008 331.004c-8.284 0-15-6.716-15-15v-301c0-8.284 6.716-15 15-15s15 6.716 15 15v301c0 8.284-6.716 15-15 15z" fill="#bee75e"/></g><path d="m338.908 231.405c-2.651-7.85-11.166-12.063-19.011-9.413-17.66 5.964-32.533 18.196-42.795 34.089-10.262-15.892-25.136-28.125-42.795-34.089-7.846-2.649-16.36 1.563-19.011 9.413-2.65 7.849 1.563 16.359 9.413 19.011 20.671 6.98 35.481 27.931 37.367 52.537-.015.278-.04.554-.052.833-.363 8.044 5.686 14.875 13.624 15.594.041.004.083.008.124.012.188.016.371.045.561.054.23.011.458.016.687.016.028 0 .055-.004.083-.004s.055.004.083.004c.229 0 .457-.005.687-.016.19-.009.373-.038.561-.054.041-.004.083-.008.124-.012 7.939-.719 13.987-7.55 13.625-15.594-.013-.279-.038-.555-.052-.833 1.886-24.606 16.696-45.557 37.367-52.537 7.847-2.651 12.061-11.162 9.41-19.011z" fill="#00ab5e"/><g><path d="m127.009 189.004c-24.813 0-45.001-20.187-45.001-45v-74c0-24.813 20.187-45 45-45s45 20.187 45 45v74c0 24.813-20.187 45-44.999 45z" fill="#6b5c59"/></g><g><path d="m277.196 331.004c-8.284 0-15-6.716-15-15v-301c0-8.284 6.716-15 15-15s15 6.716 15 15v301c0 8.284-6.716 15-15 15z" fill="#00cb75"/></g><g><path d="m277.196 189.004c-24.813 0-45-20.187-45-45v-74c0-24.813 20.187-45 45-45s45 20.187 45 45v74c0 24.813-20.186 45-45 45z" fill="#4f4540"/></g></g></svg>